<mxfile host="65bd71144e" modified="2020-12-26T09:33:08.832Z" agent="5.0 (X11; Linux aarch64) AppleWebKit/537.36 (KHTML, like Gecko) Code/1.51.1 Chrome/83.0.4103.122 Electron/9.3.3 Safari/537.36" version="13.10.0" etag="-Se6e1IvuhJaSu1gBIra" type="embed">
    <diagram id="N1eJdX3TyT9G0OdX1rYG" name="第 1 页">
        <mxGraphModel dx="1614" dy="572" grid="1" gridSize="10" guides="1" tooltips="1" connect="1" arrows="1" fold="1" page="0" pageScale="1" pageWidth="827" pageHeight="1169" math="0" shadow="0">
            <root>
                <mxCell id="0"/>
                <mxCell id="1" parent="0"/>
                <mxCell id="2" value="" style="orthogonalLoop=1;jettySize=auto;html=1;strokeColor=#000000;edgeStyle=entityRelationEdgeStyle;fontSize=14;endArrow=none;endFill=0;align=left;spacingLeft=15;arcSize=40;" edge="1" parent="1" source="4" target="6">
                    <mxGeometry relative="1" as="geometry"/>
                </mxCell>
                <mxCell id="3" value="" style="edgeStyle=entityRelationEdgeStyle;orthogonalLoop=1;jettySize=auto;html=1;strokeColor=#000000;fontSize=14;endArrow=none;endFill=0;align=left;spacingLeft=15;arcSize=40;" edge="1" parent="1" source="4" target="5">
                    <mxGeometry relative="1" as="geometry"/>
                </mxCell>
                <mxCell id="4" value="产品简介&lt;br&gt;/about" style="whiteSpace=wrap;html=1;shape=partialRectangle;top=0;left=0;bottom=1;right=0;points=[[0,1],[1,1]];strokeColor=#000000;fillColor=none;align=left;verticalAlign=bottom;routingCenterY=0.5;snapToPoint=1;container=1;recursiveResize=0;autosize=1;treeFolding=1;treeMoving=1;fontSize=14;spacingLeft=15;" vertex="1" parent="1">
                    <mxGeometry x="268" y="85" width="98" height="38" as="geometry"/>
                </mxCell>
                <mxCell id="5" value="登录&lt;br&gt;/login" style="whiteSpace=wrap;html=1;shape=partialRectangle;top=0;left=0;bottom=1;right=0;points=[[0,1],[1,1]];strokeColor=#000000;fillColor=none;align=left;verticalAlign=bottom;routingCenterY=0.5;snapToPoint=1;container=1;recursiveResize=0;autosize=1;treeFolding=1;treeMoving=1;fontSize=14;spacingLeft=15;" vertex="1" parent="1">
                    <mxGeometry x="465" y="66" width="80" height="40" as="geometry"/>
                </mxCell>
                <mxCell id="6" value="注册&lt;br&gt;/regist" style="whiteSpace=wrap;html=1;shape=partialRectangle;top=0;left=0;bottom=1;right=0;points=[[0,1],[1,1]];strokeColor=#000000;fillColor=none;align=left;verticalAlign=bottom;routingCenterY=0.5;snapToPoint=1;container=1;recursiveResize=0;autosize=1;treeFolding=1;treeMoving=1;fontSize=14;spacingLeft=15;" vertex="1" parent="1">
                    <mxGeometry x="465" y="16" width="90" height="40" as="geometry"/>
                </mxCell>
                <mxCell id="7" value="" style="startArrow=none;endArrow=none;segment=10;strokeColor=#000000;edgeStyle=entityRelationEdgeStyle;fontSize=14;endFill=0;align=left;spacingLeft=15;arcSize=40;" edge="1" parent="1" source="11" target="4">
                    <mxGeometry relative="1" as="geometry">
                        <mxPoint x="197" y="320" as="sourcePoint"/>
                    </mxGeometry>
                </mxCell>
                <mxCell id="8" style="edgeStyle=entityRelationEdgeStyle;orthogonalLoop=1;jettySize=auto;html=1;strokeColor=#000000;fontSize=14;endArrow=none;endFill=0;align=left;spacingLeft=15;arcSize=40;" edge="1" parent="1" source="11" target="14">
                    <mxGeometry relative="1" as="geometry">
                        <mxPoint x="197" y="320" as="sourcePoint"/>
                    </mxGeometry>
                </mxCell>
                <mxCell id="9" style="edgeStyle=entityRelationEdgeStyle;orthogonalLoop=1;jettySize=auto;html=1;entryX=0;entryY=1;entryDx=0;entryDy=0;endArrow=none;endFill=0;strokeColor=none;align=left;spacingLeft=15;arcSize=40;" edge="1" parent="1" source="31" target="25">
                    <mxGeometry relative="1" as="geometry">
                        <mxPoint x="197" y="320" as="sourcePoint"/>
                    </mxGeometry>
                </mxCell>
                <mxCell id="10" style="orthogonalLoop=1;jettySize=auto;html=1;endArrow=none;endFill=0;strokeColor=#000000;align=left;spacingLeft=15;edgeStyle=entityRelationEdgeStyle;arcSize=40;" edge="1" parent="1" source="34" target="25">
                    <mxGeometry relative="1" as="geometry">
                        <mxPoint x="582" y="272.5" as="sourcePoint"/>
                    </mxGeometry>
                </mxCell>
                <mxCell id="11" value="APP" style="rounded=1;whiteSpace=wrap;html=1;fontSize=14;" vertex="1" parent="1">
                    <mxGeometry x="66" y="350" width="120" height="60" as="geometry"/>
                </mxCell>
                <mxCell id="12" style="edgeStyle=entityRelationEdgeStyle;orthogonalLoop=1;jettySize=auto;html=1;entryX=0;entryY=1;entryDx=0;entryDy=0;endArrow=none;endFill=0;strokeColor=#000000;align=left;spacingLeft=15;arcSize=40;" edge="1" parent="1" source="14" target="24">
                    <mxGeometry relative="1" as="geometry">
                        <mxPoint x="266" y="236" as="sourcePoint"/>
                    </mxGeometry>
                </mxCell>
                <mxCell id="13" style="edgeStyle=entityRelationEdgeStyle;orthogonalLoop=1;jettySize=auto;html=1;endArrow=none;endFill=0;" edge="1" parent="1" source="14" target="29">
                    <mxGeometry relative="1" as="geometry"/>
                </mxCell>
                <mxCell id="14" value="&lt;br&gt;/how-do-you" style="whiteSpace=wrap;html=1;shape=partialRectangle;top=0;left=0;bottom=1;right=0;points=[[0,1],[1,1]];strokeColor=#000000;fillColor=none;align=left;verticalAlign=bottom;routingCenterY=0.5;snapToPoint=1;container=1;recursiveResize=0;autosize=1;treeFolding=1;treeMoving=1;fontSize=14;spacingLeft=15;" vertex="1" parent="1">
                    <mxGeometry x="313" y="185" width="119" height="38" as="geometry"/>
                </mxCell>
                <mxCell id="15" value="" style="edgeStyle=entityRelationEdgeStyle;orthogonalLoop=1;jettySize=auto;html=1;strokeColor=#000000;fontSize=14;endArrow=none;endFill=0;align=left;spacingLeft=15;arcSize=40;" edge="1" parent="1" source="16" target="17">
                    <mxGeometry relative="1" as="geometry"/>
                </mxCell>
                <mxCell id="16" value="任务详情&lt;br&gt;/tasks/:taskId" style="whiteSpace=wrap;html=1;shape=partialRectangle;top=0;left=0;bottom=1;right=0;points=[[0,1],[1,1]];strokeColor=#000000;fillColor=none;align=left;verticalAlign=bottom;routingCenterY=0.5;snapToPoint=1;container=1;recursiveResize=0;autosize=1;treeFolding=1;treeMoving=1;fontSize=14;spacingLeft=15;" vertex="1" parent="1">
                    <mxGeometry x="604" y="512.5" width="130" height="40" as="geometry"/>
                </mxCell>
                <mxCell id="17" value="测试详情&lt;br&gt;testlog/:yyyy/:mm/:dd/:testnum" style="whiteSpace=wrap;html=1;shape=partialRectangle;top=0;left=0;bottom=1;right=0;points=[[0,1],[1,1]];strokeColor=#000000;fillColor=none;align=left;verticalAlign=bottom;routingCenterY=0.5;snapToPoint=1;container=1;recursiveResize=0;autosize=1;treeFolding=1;treeMoving=1;fontSize=14;spacingLeft=15;" vertex="1" parent="1">
                    <mxGeometry x="842" y="474.5" width="231" height="38" as="geometry"/>
                </mxCell>
                <mxCell id="18" style="edgeStyle=entityRelationEdgeStyle;orthogonalLoop=1;jettySize=auto;html=1;strokeColor=#000000;fontSize=14;endArrow=none;endFill=0;exitX=0.792;exitY=0.987;exitDx=0;exitDy=0;align=left;spacingLeft=15;arcSize=40;exitPerimeter=0;" edge="1" parent="1" source="34" target="16">
                    <mxGeometry relative="1" as="geometry">
                        <mxPoint x="774" y="373.5" as="sourcePoint"/>
                    </mxGeometry>
                </mxCell>
                <mxCell id="19" style="edgeStyle=entityRelationEdgeStyle;orthogonalLoop=1;jettySize=auto;html=1;strokeColor=#000000;fontSize=14;endArrow=none;endFill=0;exitX=1;exitY=1;exitDx=0;exitDy=0;align=left;spacingLeft=15;arcSize=40;" edge="1" parent="1" source="25" target="21">
                    <mxGeometry relative="1" as="geometry">
                        <mxPoint x="774" y="373.5" as="sourcePoint"/>
                    </mxGeometry>
                </mxCell>
                <mxCell id="20" value="" style="edgeStyle=entityRelationEdgeStyle;orthogonalLoop=1;jettySize=auto;html=1;strokeColor=#000000;fontSize=14;endArrow=none;endFill=0;align=left;spacingLeft=15;arcSize=40;" edge="1" parent="1" source="16" target="23">
                    <mxGeometry relative="1" as="geometry"/>
                </mxCell>
                <mxCell id="21" value="新建测试任务&lt;br&gt;new" style="whiteSpace=wrap;html=1;shape=partialRectangle;top=0;left=0;bottom=1;right=0;points=[[0,1],[1,1]];strokeColor=#000000;fillColor=none;align=left;verticalAlign=bottom;routingCenterY=0.5;snapToPoint=1;container=1;recursiveResize=0;autosize=1;treeFolding=1;treeMoving=1;fontSize=14;spacingLeft=15;" vertex="1" parent="1">
                    <mxGeometry x="807" y="340" width="113" height="40" as="geometry"/>
                </mxCell>
                <mxCell id="22" style="edgeStyle=entityRelationEdgeStyle;orthogonalLoop=1;jettySize=auto;html=1;endArrow=none;endFill=0;" edge="1" parent="1" source="16" target="26">
                    <mxGeometry relative="1" as="geometry"/>
                </mxCell>
                <mxCell id="23" value="任务步骤&lt;br&gt;steps" style="whiteSpace=wrap;html=1;shape=partialRectangle;top=0;left=0;bottom=1;right=0;points=[[0,1],[1,1]];strokeColor=#000000;fillColor=none;align=left;verticalAlign=bottom;routingCenterY=0.5;snapToPoint=1;container=1;recursiveResize=0;autosize=1;treeFolding=1;treeMoving=1;fontSize=14;spacingLeft=15;" vertex="1" parent="1">
                    <mxGeometry x="842" y="542.5" width="100" height="40" as="geometry"/>
                </mxCell>
                <mxCell id="24" value="感谢&lt;br&gt;thanks" style="whiteSpace=wrap;html=1;shape=partialRectangle;top=0;left=0;bottom=1;right=0;points=[[0,1],[1,1]];strokeColor=#000000;fillColor=none;align=left;verticalAlign=bottom;routingCenterY=0.5;snapToPoint=1;container=1;recursiveResize=0;autosize=1;treeFolding=1;treeMoving=1;fontSize=14;spacingLeft=15;" vertex="1" parent="1">
                    <mxGeometry x="526" y="211" width="90" height="40" as="geometry"/>
                </mxCell>
                <mxCell id="25" value="任务管理&lt;br&gt;/tasks" style="whiteSpace=wrap;html=1;shape=partialRectangle;top=0;left=0;bottom=1;right=0;points=[[0,1],[1,1]];strokeColor=#000000;fillColor=none;align=left;verticalAlign=bottom;routingCenterY=0.5;snapToPoint=1;container=1;recursiveResize=0;autosize=1;treeFolding=1;treeMoving=1;fontSize=14;spacingLeft=15;" vertex="1" parent="1">
                    <mxGeometry x="606" y="361" width="98" height="38" as="geometry"/>
                </mxCell>
                <mxCell id="26" value="录制任务步骤&lt;br&gt;record" style="whiteSpace=wrap;html=1;shape=partialRectangle;top=0;left=0;bottom=1;right=0;points=[[0,1],[1,1]];strokeColor=#000000;fillColor=none;align=left;verticalAlign=bottom;routingCenterY=0.5;snapToPoint=1;container=1;recursiveResize=0;autosize=1;treeFolding=1;treeMoving=1;fontSize=14;spacingLeft=15;" vertex="1" parent="1">
                    <mxGeometry x="842" y="607.5" width="130" height="40" as="geometry"/>
                </mxCell>
                <mxCell id="27" style="orthogonalLoop=1;jettySize=auto;html=1;endArrow=none;endFill=0;strokeColor=#000000;align=left;spacingLeft=15;edgeStyle=entityRelationEdgeStyle;arcSize=40;" edge="1" parent="1" source="11" target="31">
                    <mxGeometry relative="1" as="geometry">
                        <mxPoint x="197" y="320" as="sourcePoint"/>
                        <mxPoint x="267" y="510" as="targetPoint"/>
                    </mxGeometry>
                </mxCell>
                <mxCell id="28" value="用户帐号&lt;br&gt;/:userName" style="whiteSpace=wrap;html=1;shape=partialRectangle;top=0;left=0;bottom=1;right=0;points=[[0,1],[1,1]];strokeColor=#000000;fillColor=none;align=left;verticalAlign=bottom;routingCenterY=0.5;snapToPoint=1;container=1;recursiveResize=0;autosize=1;treeFolding=1;treeMoving=1;fontSize=14;spacingLeft=15;" vertex="1" parent="1">
                    <mxGeometry x="590" y="660" width="114" height="38" as="geometry"/>
                </mxCell>
                <mxCell id="29" value="用户测试&lt;br&gt;:taskId" style="whiteSpace=wrap;html=1;shape=partialRectangle;top=0;left=0;bottom=1;right=0;points=[[0,1],[1,1]];strokeColor=#000000;fillColor=none;align=left;verticalAlign=bottom;routingCenterY=0.5;snapToPoint=1;container=1;recursiveResize=0;autosize=1;treeFolding=1;treeMoving=1;fontSize=14;spacingLeft=15;" vertex="1" parent="1">
                    <mxGeometry x="526" y="154" width="98" height="38" as="geometry"/>
                </mxCell>
                <mxCell id="30" style="edgeStyle=entityRelationEdgeStyle;orthogonalLoop=1;jettySize=auto;html=1;endArrow=none;endFill=0;" edge="1" parent="1" source="31" target="34">
                    <mxGeometry relative="1" as="geometry"/>
                </mxCell>
                <mxCell id="31" value="" style="points=[[0.5,0,0],[1,0.5,0],[0.5,1,0],[0,0.5,0],[0.145,0.145,0],[0.8555,0.145,0],[0.855,0.8555,0],[0.145,0.855,0]];verticalLabelPosition=bottom;html=1;verticalAlign=top;aspect=fixed;align=center;pointerEvents=1;shape=mxgraph.cisco19.lock;fillColor=#005073;strokeColor=none;dashed=1;" vertex="1" parent="1">
                    <mxGeometry x="270" y="433.5" width="30" height="30" as="geometry"/>
                </mxCell>
                <mxCell id="32" style="edgeStyle=entityRelationEdgeStyle;orthogonalLoop=1;jettySize=auto;html=1;entryX=0;entryY=1;entryDx=0;entryDy=0;endArrow=none;endFill=0;strokeColor=none;align=left;spacingLeft=15;arcSize=40;" edge="1" parent="1" source="11" target="31">
                    <mxGeometry relative="1" as="geometry">
                        <mxPoint x="186" y="380" as="sourcePoint"/>
                        <mxPoint x="426" y="349" as="targetPoint"/>
                    </mxGeometry>
                </mxCell>
                <mxCell id="33" style="edgeStyle=entityRelationEdgeStyle;orthogonalLoop=1;jettySize=auto;html=1;endArrow=none;endFill=0;" edge="1" parent="1" source="34" target="28">
                    <mxGeometry relative="1" as="geometry"/>
                </mxCell>
                <mxCell id="34" value="home&lt;br&gt;/" style="whiteSpace=wrap;html=1;shape=partialRectangle;top=0;left=0;bottom=1;right=0;points=[[0,1],[1,1]];strokeColor=#000000;fillColor=none;align=left;verticalAlign=bottom;routingCenterY=0.5;snapToPoint=1;container=1;recursiveResize=0;autosize=1;treeFolding=1;treeMoving=1;fontSize=14;spacingLeft=15;" vertex="1" parent="1">
                    <mxGeometry x="397" y="408.5" width="77" height="38" as="geometry"/>
                </mxCell>
            </root>
        </mxGraphModel>
    </diagram>
</mxfile>